<svg xmlns="http://www.w3.org/2000/svg" viewBox="0 0 1100 620" role="img" aria-labelledby="title desc"><title id="title">Solar and airflow hybrid energy node, 3D engineering concept</title><desc id="desc">Isometric PV canopy with a conceptual airflow rotor, smart power converter, battery storage and low power local loads. Not to scale.</desc><defs><linearGradient id="bg" x2="1" y2="1"><stop stop-color="#132b3b"/><stop offset="1" stop-color="#050d15"/></linearGradient><linearGradient id="pv" x2="1" y2="1"><stop stop-color="#55e9ff"/><stop offset="1" stop-color="#173b73"/></linearGradient><linearGradient id="green" x2="1" y2="1"><stop stop-color="#a0ffd1"/><stop offset="1" stop-color="#1d836f"/></linearGradient><pattern id="grid" width="36" height="36" patternUnits="userSpaceOnUse"><path d="M36 0H0V36" stroke="#4c9ab0" stroke-opacity=".2" fill="none"/></pattern></defs><rect width="1100" height="620" rx="24" fill="url(#bg)"/><rect width="1100" height="620" rx="24" fill="url(#grid)"/>
<!-- platform --> <polygon points="70 440 510 230 1015 460 580 590" fill="#102a37" stroke="#3b7488" stroke-width="2"/><path d="M110 440L580 563 970 456M200 378L671 501M295 334L767 456M390 290L861 412" fill="none" stroke="#397c90" stroke-opacity=".45"/>
<!-- PV canopy --> <g transform="translate(70 105)"><polygon points="30 150 292 28 545 148 283 273" fill="#173d56" stroke="#75e8fa" stroke-width="3"/><polygon points="60 148 292 39 513 148 282 260" fill="url(#pv)" stroke="#a4f5ff" stroke-width="2"/><g stroke="#b7f7ff" stroke-opacity=".8" stroke-width="2" fill="none"><path d="M115 122L335 232M171 96L391 207M226 70L446 181M98 130L327 21M152 157L383 47M207 184L438 73M263 211L492 99"/></g><path d="M118 177V305M280 260V373M450 178V270" stroke="#7898a7" stroke-width="9"/><text x="280" y="-4" fill="#a4f1ff" text-anchor="middle" font-family="system-ui" font-size="18" letter-spacing="2">PV CANOPY</text></g>
<!-- airflow turbine --> <g transform="translate(740 155)"><path d="M0 100V300" stroke="#a4c4cf" stroke-width="12"/><path d="M-32 300H32L15 318H-15Z" fill="#45616d"/><ellipse cx="0" cy="64" rx="43" ry="17" fill="#183f4e" stroke="#85f0ff" stroke-width="3"/><path d="M0 64L-12 -10Q0 -23 12 -10ZM0 64L62 94Q69 110 50 111ZM0 64L-49 111Q-66 107 -62 90Z" fill="url(#green)" stroke="#b8ffdf" stroke-width="2"/><circle cx="0" cy="64" r="10" fill="#08202a" stroke="#8af3bf" stroke-width="3"/><path d="M-93 39Q-66 18 -42 35M-101 70Q-78 51 -49 63M55 28Q83 10 103 29" fill="none" stroke="#56dfff" stroke-width="3" stroke-linecap="round" stroke-dasharray="6 10"/><text x="0" y="345" fill="#a5ffd5" text-anchor="middle" font-family="system-ui" font-size="15">AIRFLOW MICRO-RECOVERY</text></g>
<!-- converter --> <g transform="translate(430 380)"><polygon points="0 20 79 -18 158 20 79 58" fill="#214a56" stroke="#74eaff" stroke-width="2"/><polygon points="0 20 79 58 79 121 0 83" fill="#102e3a"/><polygon points="79 58 158 20 158 83 79 121" fill="#2a5661"/><rect x="35" y="32" width="88" height="37" rx="4" fill="#06151e" stroke="#8af3bf" transform="skewY(-25)"/><path d="M46 47l12 -8 12 8 12 -8 12 8" fill="none" stroke="#8af3bf" stroke-width="3"/><text x="79" y="146" fill="#a5effb" text-anchor="middle" font-family="system-ui" font-size="13">MPPT / DC BUS</text></g>
<!-- battery --> <g transform="translate(830 350)"><polygon points="0 28 80 -10 160 28 80 66" fill="#2d5e4e" stroke="#8af3bf" stroke-width="2"/><polygon points="0 28 80 66 80 154 0 116" fill="#14362e"/><polygon points="80 66 160 28 160 116 80 154" fill="#285848"/><path d="M18 43L61 64V91L18 70Z" fill="#071f19" stroke="#9dffd7"/><path d="M98 78L143 57V84L98 105Z" fill="#071f19" stroke="#9dffd7"/><text x="80" y="181" fill="#a5ffd5" text-anchor="middle" font-family="system-ui" font-size="15">BATTERY STORAGE</text></g>
<!-- load and paths --> <g transform="translate(975 178)" stroke="#a7efff" stroke-width="3" fill="none"><path d="M0 40V137M-26 137H26M-18 137L-9 151H9L18 137"/><path d="M-22 44Q0 10 22 44Q0 69 -22 44Z" fill="#5de1ff" fill-opacity=".25"/><text x="0" y="183" fill="#a7efff" stroke="none" text-anchor="middle" font-size="13" font-family="system-ui">SENSORS / LIGHTS</text></g><path d="M355 285C385 325 405 350 435 390M742 315C720 366 662 388 590 403M590 420C680 440 760 421 830 401M908 350C945 316 967 274 975 240" stroke="#8af3bf" stroke-width="4" stroke-dasharray="8 10" fill="none" stroke-linecap="round"/><text x="48" y="50" fill="#a3f3ff" font-size="18" font-family="system-ui" letter-spacing="2">03 / HYBRID RENEWABLE SUPPORT NODE</text><text x="550" y="585" fill="#8aa9b7" text-anchor="middle" font-size="13" font-family="system-ui">PV yield and airflow recovery are site-dependent; values shown in the app are model estimates</text></svg>